<mxfile host="Electron" modified="2024-05-01T13:42:46.026Z" agent="Mozilla/5.0 (Windows NT 10.0; Win64; x64) AppleWebKit/537.36 (KHTML, like Gecko) draw.io/24.2.5 Chrome/120.0.6099.109 Electron/28.1.0 Safari/537.36" etag="My0PSjg-BvwF3Ynf7Dv8" version="24.2.5" type="device">
  <diagram name="ページ1" id="LE8fIzdrHe0wcv1LTvfw">
    <mxGraphModel dx="1732" dy="1036" grid="1" gridSize="10" guides="1" tooltips="1" connect="1" arrows="1" fold="1" page="1" pageScale="1" pageWidth="1600" pageHeight="1200" math="0" shadow="0">
      <root>
        <mxCell id="0" />
        <mxCell id="cFaB45KztUIKXS-_cTrr-4" value="背景" style="locked=1;" parent="0" visible="0" />
        <mxCell id="cFaB45KztUIKXS-_cTrr-5" value="" style="rounded=0;whiteSpace=wrap;html=1;strokeWidth=3;" parent="cFaB45KztUIKXS-_cTrr-4" vertex="1">
          <mxGeometry x="1" y="1" width="1595" height="1180" as="geometry" />
        </mxCell>
        <mxCell id="cFaB45KztUIKXS-_cTrr-6" value="" style="rounded=0;whiteSpace=wrap;html=1;fillColor=#B3B3B3;fontColor=#333333;strokeColor=#666666;" parent="cFaB45KztUIKXS-_cTrr-4" vertex="1">
          <mxGeometry width="1595" height="60" as="geometry" />
        </mxCell>
        <mxCell id="cFaB45KztUIKXS-_cTrr-7" value="&lt;font style=&quot;font-size: 48px;&quot;&gt;×&lt;/font&gt;" style="rounded=0;whiteSpace=wrap;html=1;" parent="cFaB45KztUIKXS-_cTrr-4" vertex="1">
          <mxGeometry x="1550" y="10" width="40" height="40" as="geometry" />
        </mxCell>
        <mxCell id="cFaB45KztUIKXS-_cTrr-8" value="" style="rounded=0;whiteSpace=wrap;html=1;" parent="cFaB45KztUIKXS-_cTrr-4" vertex="1">
          <mxGeometry x="830" y="670" width="120" height="60" as="geometry" />
        </mxCell>
        <mxCell id="cFaB45KztUIKXS-_cTrr-9" value="ウインドウ" style="locked=1;" parent="0" />
        <mxCell id="cFaB45KztUIKXS-_cTrr-10" value="" style="rounded=0;whiteSpace=wrap;html=1;strokeWidth=3;" parent="cFaB45KztUIKXS-_cTrr-9" vertex="1">
          <mxGeometry x="1" y="1" width="1859" height="1159" as="geometry" />
        </mxCell>
        <mxCell id="cFaB45KztUIKXS-_cTrr-11" value="" style="rounded=0;whiteSpace=wrap;html=1;fillColor=#B3B3B3;fontColor=#333333;strokeColor=#666666;" parent="cFaB45KztUIKXS-_cTrr-9" vertex="1">
          <mxGeometry width="1595" height="60" as="geometry" />
        </mxCell>
        <mxCell id="cFaB45KztUIKXS-_cTrr-12" value="&lt;font style=&quot;font-size: 48px;&quot;&gt;×&lt;/font&gt;" style="rounded=0;whiteSpace=wrap;html=1;" parent="cFaB45KztUIKXS-_cTrr-9" vertex="1">
          <mxGeometry x="1550" y="10" width="40" height="40" as="geometry" />
        </mxCell>
        <mxCell id="aC_ZPOTnZimZaIMkgc5W-0" value="" style="line;strokeWidth=2;direction=south;html=1;dashed=1;dashPattern=12 12;" parent="cFaB45KztUIKXS-_cTrr-9" vertex="1">
          <mxGeometry x="1540" y="10" width="10" height="1000" as="geometry" />
        </mxCell>
        <mxCell id="cFaB45KztUIKXS-_cTrr-14" value="名称未設定レイヤ" style="" parent="0" />
        <mxCell id="kxWkAaZomFuKM2yIZcbC-56" value="" style="shape=table;startSize=0;container=1;collapsible=0;childLayout=tableLayout;fontSize=16;" parent="cFaB45KztUIKXS-_cTrr-14" vertex="1">
          <mxGeometry x="30" y="650" width="1140" height="200" as="geometry" />
        </mxCell>
        <mxCell id="kxWkAaZomFuKM2yIZcbC-57" value="" style="shape=tableRow;horizontal=0;startSize=0;swimlaneHead=0;swimlaneBody=0;strokeColor=inherit;top=0;left=0;bottom=0;right=0;collapsible=0;dropTarget=0;fillColor=none;points=[[0,0.5],[1,0.5]];portConstraint=eastwest;fontSize=16;" parent="kxWkAaZomFuKM2yIZcbC-56" vertex="1">
          <mxGeometry width="1140" height="40" as="geometry" />
        </mxCell>
        <mxCell id="kxWkAaZomFuKM2yIZcbC-58" value="" style="shape=partialRectangle;html=1;whiteSpace=wrap;connectable=0;strokeColor=inherit;overflow=hidden;fillColor=none;top=0;left=0;bottom=0;right=0;pointerEvents=1;fontSize=16;" parent="kxWkAaZomFuKM2yIZcbC-57" vertex="1">
          <mxGeometry width="50" height="40" as="geometry">
            <mxRectangle width="50" height="40" as="alternateBounds" />
          </mxGeometry>
        </mxCell>
        <mxCell id="auQGhdGy_nrCcuV3ys4A-0" value="&lt;font style=&quot;font-size: 30px;&quot;&gt;政治家コード&lt;/font&gt;" style="shape=partialRectangle;html=1;whiteSpace=wrap;connectable=0;strokeColor=inherit;overflow=hidden;fillColor=none;top=0;left=0;bottom=0;right=0;pointerEvents=1;fontSize=16;" parent="kxWkAaZomFuKM2yIZcbC-57" vertex="1">
          <mxGeometry x="50" width="190" height="40" as="geometry">
            <mxRectangle width="190" height="40" as="alternateBounds" />
          </mxGeometry>
        </mxCell>
        <mxCell id="auQGhdGy_nrCcuV3ys4A-6" value="&lt;font style=&quot;font-size: 30px;&quot;&gt;政治家名称&lt;/font&gt;" style="shape=partialRectangle;html=1;whiteSpace=wrap;connectable=0;strokeColor=inherit;overflow=hidden;fillColor=none;top=0;left=0;bottom=0;right=0;pointerEvents=1;fontSize=16;" parent="kxWkAaZomFuKM2yIZcbC-57" vertex="1">
          <mxGeometry x="240" width="300" height="40" as="geometry">
            <mxRectangle width="300" height="40" as="alternateBounds" />
          </mxGeometry>
        </mxCell>
        <mxCell id="cdmeLEnnqN9o7mxTk7t2-17" value="&lt;font style=&quot;font-size: 30px;&quot;&gt;所属議会名称&lt;/font&gt;" style="shape=partialRectangle;html=1;whiteSpace=wrap;connectable=0;strokeColor=inherit;overflow=hidden;fillColor=none;top=0;left=0;bottom=0;right=0;pointerEvents=1;fontSize=16;" parent="kxWkAaZomFuKM2yIZcbC-57" vertex="1">
          <mxGeometry x="540" width="210" height="40" as="geometry">
            <mxRectangle width="210" height="40" as="alternateBounds" />
          </mxGeometry>
        </mxCell>
        <mxCell id="kxWkAaZomFuKM2yIZcbC-60" value="&lt;font style=&quot;font-size: 30px;&quot;&gt;政党名称&lt;/font&gt;" style="shape=partialRectangle;html=1;whiteSpace=wrap;connectable=0;strokeColor=inherit;overflow=hidden;fillColor=none;top=0;left=0;bottom=0;right=0;pointerEvents=1;fontSize=16;" parent="kxWkAaZomFuKM2yIZcbC-57" vertex="1">
          <mxGeometry x="750" width="210" height="40" as="geometry">
            <mxRectangle width="210" height="40" as="alternateBounds" />
          </mxGeometry>
        </mxCell>
        <mxCell id="aofkNSBhaa3phzOjtapv-1" style="shape=partialRectangle;html=1;whiteSpace=wrap;connectable=0;strokeColor=inherit;overflow=hidden;fillColor=none;top=0;left=0;bottom=0;right=0;pointerEvents=1;fontSize=16;" parent="kxWkAaZomFuKM2yIZcbC-57" vertex="1">
          <mxGeometry x="960" width="180" height="40" as="geometry">
            <mxRectangle width="180" height="40" as="alternateBounds" />
          </mxGeometry>
        </mxCell>
        <mxCell id="kxWkAaZomFuKM2yIZcbC-64" value="" style="shape=tableRow;horizontal=0;startSize=0;swimlaneHead=0;swimlaneBody=0;strokeColor=inherit;top=0;left=0;bottom=0;right=0;collapsible=0;dropTarget=0;fillColor=none;points=[[0,0.5],[1,0.5]];portConstraint=eastwest;fontSize=16;" parent="kxWkAaZomFuKM2yIZcbC-56" vertex="1">
          <mxGeometry y="40" width="1140" height="40" as="geometry" />
        </mxCell>
        <mxCell id="kxWkAaZomFuKM2yIZcbC-65" value="" style="shape=partialRectangle;html=1;whiteSpace=wrap;connectable=0;strokeColor=inherit;overflow=hidden;fillColor=none;top=0;left=0;bottom=0;right=0;pointerEvents=1;fontSize=16;" parent="kxWkAaZomFuKM2yIZcbC-64" vertex="1">
          <mxGeometry width="50" height="40" as="geometry">
            <mxRectangle width="50" height="40" as="alternateBounds" />
          </mxGeometry>
        </mxCell>
        <mxCell id="auQGhdGy_nrCcuV3ys4A-1" value="&lt;font style=&quot;font-size: 30px;&quot;&gt;1122&lt;/font&gt;" style="shape=partialRectangle;html=1;whiteSpace=wrap;connectable=0;strokeColor=inherit;overflow=hidden;fillColor=none;top=0;left=0;bottom=0;right=0;pointerEvents=1;fontSize=16;" parent="kxWkAaZomFuKM2yIZcbC-64" vertex="1">
          <mxGeometry x="50" width="190" height="40" as="geometry">
            <mxRectangle width="190" height="40" as="alternateBounds" />
          </mxGeometry>
        </mxCell>
        <mxCell id="auQGhdGy_nrCcuV3ys4A-7" value="&lt;span style=&quot;font-size: 30px;&quot;&gt;政治家　太郎&lt;/span&gt;" style="shape=partialRectangle;html=1;whiteSpace=wrap;connectable=0;strokeColor=inherit;overflow=hidden;fillColor=none;top=0;left=0;bottom=0;right=0;pointerEvents=1;fontSize=16;" parent="kxWkAaZomFuKM2yIZcbC-64" vertex="1">
          <mxGeometry x="240" width="300" height="40" as="geometry">
            <mxRectangle width="300" height="40" as="alternateBounds" />
          </mxGeometry>
        </mxCell>
        <mxCell id="cdmeLEnnqN9o7mxTk7t2-18" value="&lt;font style=&quot;font-size: 30px;&quot;&gt;架空市議会&lt;/font&gt;" style="shape=partialRectangle;html=1;whiteSpace=wrap;connectable=0;strokeColor=inherit;overflow=hidden;fillColor=none;top=0;left=0;bottom=0;right=0;pointerEvents=1;fontSize=16;" parent="kxWkAaZomFuKM2yIZcbC-64" vertex="1">
          <mxGeometry x="540" width="210" height="40" as="geometry">
            <mxRectangle width="210" height="40" as="alternateBounds" />
          </mxGeometry>
        </mxCell>
        <mxCell id="kxWkAaZomFuKM2yIZcbC-67" value="&lt;span style=&quot;font-size: 30px;&quot;&gt;中途半端な党&lt;/span&gt;" style="shape=partialRectangle;html=1;whiteSpace=wrap;connectable=0;strokeColor=inherit;overflow=hidden;fillColor=none;top=0;left=0;bottom=0;right=0;pointerEvents=1;fontSize=16;" parent="kxWkAaZomFuKM2yIZcbC-64" vertex="1">
          <mxGeometry x="750" width="210" height="40" as="geometry">
            <mxRectangle width="210" height="40" as="alternateBounds" />
          </mxGeometry>
        </mxCell>
        <mxCell id="aofkNSBhaa3phzOjtapv-2" style="shape=partialRectangle;html=1;whiteSpace=wrap;connectable=0;strokeColor=inherit;overflow=hidden;fillColor=none;top=0;left=0;bottom=0;right=0;pointerEvents=1;fontSize=16;align=left;" parent="kxWkAaZomFuKM2yIZcbC-64" vertex="1">
          <mxGeometry x="960" width="180" height="40" as="geometry">
            <mxRectangle width="180" height="40" as="alternateBounds" />
          </mxGeometry>
        </mxCell>
        <mxCell id="kxWkAaZomFuKM2yIZcbC-71" value="" style="shape=tableRow;horizontal=0;startSize=0;swimlaneHead=0;swimlaneBody=0;strokeColor=inherit;top=0;left=0;bottom=0;right=0;collapsible=0;dropTarget=0;fillColor=none;points=[[0,0.5],[1,0.5]];portConstraint=eastwest;fontSize=16;align=left;" parent="kxWkAaZomFuKM2yIZcbC-56" vertex="1">
          <mxGeometry y="80" width="1140" height="40" as="geometry" />
        </mxCell>
        <mxCell id="kxWkAaZomFuKM2yIZcbC-72" value="" style="shape=partialRectangle;html=1;whiteSpace=wrap;connectable=0;strokeColor=inherit;overflow=hidden;fillColor=none;top=0;left=0;bottom=0;right=0;pointerEvents=1;fontSize=16;" parent="kxWkAaZomFuKM2yIZcbC-71" vertex="1">
          <mxGeometry width="50" height="40" as="geometry">
            <mxRectangle width="50" height="40" as="alternateBounds" />
          </mxGeometry>
        </mxCell>
        <mxCell id="auQGhdGy_nrCcuV3ys4A-2" value="&lt;font style=&quot;font-size: 30px;&quot;&gt;3344&lt;/font&gt;" style="shape=partialRectangle;html=1;whiteSpace=wrap;connectable=0;strokeColor=inherit;overflow=hidden;fillColor=none;top=0;left=0;bottom=0;right=0;pointerEvents=1;fontSize=16;" parent="kxWkAaZomFuKM2yIZcbC-71" vertex="1">
          <mxGeometry x="50" width="190" height="40" as="geometry">
            <mxRectangle width="190" height="40" as="alternateBounds" />
          </mxGeometry>
        </mxCell>
        <mxCell id="auQGhdGy_nrCcuV3ys4A-8" value="&lt;font style=&quot;font-size: 30px;&quot;&gt;政治家　英雄&lt;br&gt;&lt;/font&gt;" style="shape=partialRectangle;html=1;whiteSpace=wrap;connectable=0;strokeColor=inherit;overflow=hidden;fillColor=none;top=0;left=0;bottom=0;right=0;pointerEvents=1;fontSize=16;" parent="kxWkAaZomFuKM2yIZcbC-71" vertex="1">
          <mxGeometry x="240" width="300" height="40" as="geometry">
            <mxRectangle width="300" height="40" as="alternateBounds" />
          </mxGeometry>
        </mxCell>
        <mxCell id="cdmeLEnnqN9o7mxTk7t2-19" value="&lt;font style=&quot;font-size: 30px;&quot;&gt;実在村議会&lt;/font&gt;" style="shape=partialRectangle;html=1;whiteSpace=wrap;connectable=0;strokeColor=inherit;overflow=hidden;fillColor=none;top=0;left=0;bottom=0;right=0;pointerEvents=1;fontSize=16;" parent="kxWkAaZomFuKM2yIZcbC-71" vertex="1">
          <mxGeometry x="540" width="210" height="40" as="geometry">
            <mxRectangle width="210" height="40" as="alternateBounds" />
          </mxGeometry>
        </mxCell>
        <mxCell id="kxWkAaZomFuKM2yIZcbC-74" value="&lt;font style=&quot;font-size: 30px;&quot;&gt;北海道の党&lt;/font&gt;" style="shape=partialRectangle;html=1;whiteSpace=wrap;connectable=0;strokeColor=inherit;overflow=hidden;fillColor=none;top=0;left=0;bottom=0;right=0;pointerEvents=1;fontSize=16;" parent="kxWkAaZomFuKM2yIZcbC-71" vertex="1">
          <mxGeometry x="750" width="210" height="40" as="geometry">
            <mxRectangle width="210" height="40" as="alternateBounds" />
          </mxGeometry>
        </mxCell>
        <mxCell id="aofkNSBhaa3phzOjtapv-3" style="shape=partialRectangle;html=1;whiteSpace=wrap;connectable=0;strokeColor=inherit;overflow=hidden;fillColor=none;top=0;left=0;bottom=0;right=0;pointerEvents=1;fontSize=16;align=left;" parent="kxWkAaZomFuKM2yIZcbC-71" vertex="1">
          <mxGeometry x="960" width="180" height="40" as="geometry">
            <mxRectangle width="180" height="40" as="alternateBounds" />
          </mxGeometry>
        </mxCell>
        <mxCell id="kxWkAaZomFuKM2yIZcbC-78" style="shape=tableRow;horizontal=0;startSize=0;swimlaneHead=0;swimlaneBody=0;strokeColor=inherit;top=0;left=0;bottom=0;right=0;collapsible=0;dropTarget=0;fillColor=none;points=[[0,0.5],[1,0.5]];portConstraint=eastwest;fontSize=16;" parent="kxWkAaZomFuKM2yIZcbC-56" vertex="1">
          <mxGeometry y="120" width="1140" height="40" as="geometry" />
        </mxCell>
        <mxCell id="kxWkAaZomFuKM2yIZcbC-79" style="shape=partialRectangle;html=1;whiteSpace=wrap;connectable=0;strokeColor=inherit;overflow=hidden;fillColor=none;top=0;left=0;bottom=0;right=0;pointerEvents=1;fontSize=16;" parent="kxWkAaZomFuKM2yIZcbC-78" vertex="1">
          <mxGeometry width="50" height="40" as="geometry">
            <mxRectangle width="50" height="40" as="alternateBounds" />
          </mxGeometry>
        </mxCell>
        <mxCell id="auQGhdGy_nrCcuV3ys4A-3" value="&lt;font style=&quot;font-size: 30px;&quot;&gt;4455&lt;/font&gt;" style="shape=partialRectangle;html=1;whiteSpace=wrap;connectable=0;strokeColor=inherit;overflow=hidden;fillColor=none;top=0;left=0;bottom=0;right=0;pointerEvents=1;fontSize=16;" parent="kxWkAaZomFuKM2yIZcbC-78" vertex="1">
          <mxGeometry x="50" width="190" height="40" as="geometry">
            <mxRectangle width="190" height="40" as="alternateBounds" />
          </mxGeometry>
        </mxCell>
        <mxCell id="auQGhdGy_nrCcuV3ys4A-9" value="&lt;font style=&quot;font-size: 30px;&quot;&gt;政治家　久美子&lt;br&gt;&lt;/font&gt;" style="shape=partialRectangle;html=1;whiteSpace=wrap;connectable=0;strokeColor=inherit;overflow=hidden;fillColor=none;top=0;left=0;bottom=0;right=0;pointerEvents=1;fontSize=16;" parent="kxWkAaZomFuKM2yIZcbC-78" vertex="1">
          <mxGeometry x="240" width="300" height="40" as="geometry">
            <mxRectangle width="300" height="40" as="alternateBounds" />
          </mxGeometry>
        </mxCell>
        <mxCell id="cdmeLEnnqN9o7mxTk7t2-20" value="&lt;font style=&quot;font-size: 30px;&quot;&gt;岸辺町議会&lt;/font&gt;" style="shape=partialRectangle;html=1;whiteSpace=wrap;connectable=0;strokeColor=inherit;overflow=hidden;fillColor=none;top=0;left=0;bottom=0;right=0;pointerEvents=1;fontSize=16;" parent="kxWkAaZomFuKM2yIZcbC-78" vertex="1">
          <mxGeometry x="540" width="210" height="40" as="geometry">
            <mxRectangle width="210" height="40" as="alternateBounds" />
          </mxGeometry>
        </mxCell>
        <mxCell id="kxWkAaZomFuKM2yIZcbC-81" value="&lt;span style=&quot;font-size: 30px;&quot;&gt;バラマキ党&lt;/span&gt;" style="shape=partialRectangle;html=1;whiteSpace=wrap;connectable=0;strokeColor=inherit;overflow=hidden;fillColor=none;top=0;left=0;bottom=0;right=0;pointerEvents=1;fontSize=16;" parent="kxWkAaZomFuKM2yIZcbC-78" vertex="1">
          <mxGeometry x="750" width="210" height="40" as="geometry">
            <mxRectangle width="210" height="40" as="alternateBounds" />
          </mxGeometry>
        </mxCell>
        <mxCell id="aofkNSBhaa3phzOjtapv-4" style="shape=partialRectangle;html=1;whiteSpace=wrap;connectable=0;strokeColor=inherit;overflow=hidden;fillColor=none;top=0;left=0;bottom=0;right=0;pointerEvents=1;fontSize=16;align=left;" parent="kxWkAaZomFuKM2yIZcbC-78" vertex="1">
          <mxGeometry x="960" width="180" height="40" as="geometry">
            <mxRectangle width="180" height="40" as="alternateBounds" />
          </mxGeometry>
        </mxCell>
        <mxCell id="kxWkAaZomFuKM2yIZcbC-85" style="shape=tableRow;horizontal=0;startSize=0;swimlaneHead=0;swimlaneBody=0;strokeColor=inherit;top=0;left=0;bottom=0;right=0;collapsible=0;dropTarget=0;fillColor=none;points=[[0,0.5],[1,0.5]];portConstraint=eastwest;fontSize=16;" parent="kxWkAaZomFuKM2yIZcbC-56" vertex="1">
          <mxGeometry y="160" width="1140" height="40" as="geometry" />
        </mxCell>
        <mxCell id="kxWkAaZomFuKM2yIZcbC-86" style="shape=partialRectangle;html=1;whiteSpace=wrap;connectable=0;strokeColor=inherit;overflow=hidden;fillColor=none;top=0;left=0;bottom=0;right=0;pointerEvents=1;fontSize=16;" parent="kxWkAaZomFuKM2yIZcbC-85" vertex="1">
          <mxGeometry width="50" height="40" as="geometry">
            <mxRectangle width="50" height="40" as="alternateBounds" />
          </mxGeometry>
        </mxCell>
        <mxCell id="auQGhdGy_nrCcuV3ys4A-4" value="&lt;font style=&quot;font-size: 30px;&quot;&gt;5566&lt;/font&gt;" style="shape=partialRectangle;html=1;whiteSpace=wrap;connectable=0;strokeColor=inherit;overflow=hidden;fillColor=none;top=0;left=0;bottom=0;right=0;pointerEvents=1;fontSize=16;" parent="kxWkAaZomFuKM2yIZcbC-85" vertex="1">
          <mxGeometry x="50" width="190" height="40" as="geometry">
            <mxRectangle width="190" height="40" as="alternateBounds" />
          </mxGeometry>
        </mxCell>
        <mxCell id="auQGhdGy_nrCcuV3ys4A-10" value="&lt;font style=&quot;font-size: 30px;&quot;&gt;政治家　明美&lt;/font&gt;" style="shape=partialRectangle;html=1;whiteSpace=wrap;connectable=0;strokeColor=inherit;overflow=hidden;fillColor=none;top=0;left=0;bottom=0;right=0;pointerEvents=1;fontSize=16;" parent="kxWkAaZomFuKM2yIZcbC-85" vertex="1">
          <mxGeometry x="240" width="300" height="40" as="geometry">
            <mxRectangle width="300" height="40" as="alternateBounds" />
          </mxGeometry>
        </mxCell>
        <mxCell id="cdmeLEnnqN9o7mxTk7t2-21" value="&lt;font style=&quot;font-size: 30px;&quot;&gt;山奥市議会&lt;/font&gt;&lt;span style=&quot;font-size: 30px;&quot;&gt;&lt;br&gt;&lt;/span&gt;" style="shape=partialRectangle;html=1;whiteSpace=wrap;connectable=0;strokeColor=inherit;overflow=hidden;fillColor=none;top=0;left=0;bottom=0;right=0;pointerEvents=1;fontSize=16;" parent="kxWkAaZomFuKM2yIZcbC-85" vertex="1">
          <mxGeometry x="540" width="210" height="40" as="geometry">
            <mxRectangle width="210" height="40" as="alternateBounds" />
          </mxGeometry>
        </mxCell>
        <mxCell id="kxWkAaZomFuKM2yIZcbC-88" value="&lt;font style=&quot;font-size: 30px;&quot;&gt;助成金の党&lt;/font&gt;" style="shape=partialRectangle;html=1;whiteSpace=wrap;connectable=0;strokeColor=inherit;overflow=hidden;fillColor=none;top=0;left=0;bottom=0;right=0;pointerEvents=1;fontSize=16;" parent="kxWkAaZomFuKM2yIZcbC-85" vertex="1">
          <mxGeometry x="750" width="210" height="40" as="geometry">
            <mxRectangle width="210" height="40" as="alternateBounds" />
          </mxGeometry>
        </mxCell>
        <mxCell id="aofkNSBhaa3phzOjtapv-5" style="shape=partialRectangle;html=1;whiteSpace=wrap;connectable=0;strokeColor=inherit;overflow=hidden;fillColor=none;top=0;left=0;bottom=0;right=0;pointerEvents=1;fontSize=16;align=left;" parent="kxWkAaZomFuKM2yIZcbC-85" vertex="1">
          <mxGeometry x="960" width="180" height="40" as="geometry">
            <mxRectangle width="180" height="40" as="alternateBounds" />
          </mxGeometry>
        </mxCell>
        <mxCell id="kxWkAaZomFuKM2yIZcbC-49" value="&lt;font style=&quot;font-size: 84px;&quot;&gt;○&lt;/font&gt;" style="text;html=1;strokeColor=none;fillColor=none;align=center;verticalAlign=middle;whiteSpace=wrap;rounded=0;fontSize=60;" parent="cFaB45KztUIKXS-_cTrr-14" vertex="1">
          <mxGeometry x="25" y="691" width="60" height="30" as="geometry" />
        </mxCell>
        <mxCell id="kxWkAaZomFuKM2yIZcbC-51" value="&lt;font style=&quot;font-size: 84px;&quot;&gt;○&lt;/font&gt;" style="text;html=1;strokeColor=none;fillColor=none;align=center;verticalAlign=middle;whiteSpace=wrap;rounded=0;fontSize=60;" parent="cFaB45KztUIKXS-_cTrr-14" vertex="1">
          <mxGeometry x="25" y="730" width="60" height="30" as="geometry" />
        </mxCell>
        <mxCell id="kxWkAaZomFuKM2yIZcbC-53" value="&lt;font style=&quot;font-size: 84px;&quot;&gt;○&lt;/font&gt;" style="text;html=1;strokeColor=none;fillColor=none;align=center;verticalAlign=middle;whiteSpace=wrap;rounded=0;fontSize=60;" parent="cFaB45KztUIKXS-_cTrr-14" vertex="1">
          <mxGeometry x="24" y="770" width="60" height="30" as="geometry" />
        </mxCell>
        <mxCell id="kxWkAaZomFuKM2yIZcbC-54" value="&lt;font style=&quot;font-size: 48px;&quot;&gt;●&lt;/font&gt;" style="text;html=1;strokeColor=none;fillColor=none;align=center;verticalAlign=middle;whiteSpace=wrap;rounded=0;fontSize=48;" parent="cFaB45KztUIKXS-_cTrr-14" vertex="1">
          <mxGeometry x="24" y="772" width="60" height="30" as="geometry" />
        </mxCell>
        <mxCell id="kxWkAaZomFuKM2yIZcbC-55" value="&lt;font style=&quot;font-size: 84px;&quot;&gt;○&lt;/font&gt;" style="text;html=1;strokeColor=none;fillColor=none;align=center;verticalAlign=middle;whiteSpace=wrap;rounded=0;fontSize=60;" parent="cFaB45KztUIKXS-_cTrr-14" vertex="1">
          <mxGeometry x="25" y="810" width="60" height="30" as="geometry" />
        </mxCell>
        <mxCell id="kxWkAaZomFuKM2yIZcbC-108" value="&lt;span style=&quot;font-size: 30px;&quot;&gt;議員名(自由記述)&lt;/span&gt;" style="rounded=0;whiteSpace=wrap;html=1;align=right;dashed=1;dashPattern=8 8;verticalAlign=bottom;" parent="cFaB45KztUIKXS-_cTrr-14" vertex="1">
          <mxGeometry x="30" y="86" width="310" height="46" as="geometry" />
        </mxCell>
        <mxCell id="kxWkAaZomFuKM2yIZcbC-109" value="&lt;span style=&quot;font-size: 30px;&quot;&gt;太郎&lt;/span&gt;" style="rounded=0;whiteSpace=wrap;html=1;align=left;verticalAlign=top;" parent="cFaB45KztUIKXS-_cTrr-14" vertex="1">
          <mxGeometry x="360" y="87" width="650" height="103" as="geometry" />
        </mxCell>
        <mxCell id="kxWkAaZomFuKM2yIZcbC-110" value="&lt;span style=&quot;font-size: 30px;&quot;&gt;検索結果&lt;/span&gt;" style="rounded=0;whiteSpace=wrap;html=1;align=left;dashed=1;dashPattern=8 8;verticalAlign=bottom;" parent="cFaB45KztUIKXS-_cTrr-14" vertex="1">
          <mxGeometry x="30" y="576" width="310" height="46" as="geometry" />
        </mxCell>
        <mxCell id="5l2hKBXCzOEWmYN1dR5e-1" value="&lt;span style=&quot;font-size: 30px;&quot;&gt;選択&lt;/span&gt;" style="rounded=1;whiteSpace=wrap;html=1;" parent="cFaB45KztUIKXS-_cTrr-14" vertex="1">
          <mxGeometry x="1343" y="1089" width="210" height="60" as="geometry" />
        </mxCell>
        <mxCell id="5l2hKBXCzOEWmYN1dR5e-2" value="&lt;span style=&quot;font-size: 30px;&quot;&gt;閉じる&lt;/span&gt;" style="rounded=1;whiteSpace=wrap;html=1;" parent="cFaB45KztUIKXS-_cTrr-14" vertex="1">
          <mxGeometry x="1093" y="1089" width="210" height="60" as="geometry" />
        </mxCell>
        <mxCell id="5l2hKBXCzOEWmYN1dR5e-3" value="&lt;span style=&quot;font-size: 30px;&quot;&gt;検索&lt;/span&gt;" style="rounded=1;whiteSpace=wrap;html=1;" parent="cFaB45KztUIKXS-_cTrr-14" vertex="1">
          <mxGeometry x="1040" y="88" width="210" height="51" as="geometry" />
        </mxCell>
        <mxCell id="cdmeLEnnqN9o7mxTk7t2-6" value="&lt;span style=&quot;font-size: 30px;&quot;&gt;詳細条件&lt;/span&gt;" style="rounded=0;whiteSpace=wrap;html=1;align=left;dashed=1;dashPattern=8 8;verticalAlign=bottom;" parent="cFaB45KztUIKXS-_cTrr-14" vertex="1">
          <mxGeometry x="30" y="236" width="310" height="46" as="geometry" />
        </mxCell>
        <mxCell id="cdmeLEnnqN9o7mxTk7t2-7" value="&lt;font style=&quot;font-size: 30px;&quot;&gt;▼東北地方&lt;/font&gt;&lt;span style=&quot;font-size: 30px;&quot;&gt;&lt;br&gt;&lt;/span&gt;" style="rounded=0;whiteSpace=wrap;html=1;align=left;" parent="cFaB45KztUIKXS-_cTrr-14" vertex="1">
          <mxGeometry x="360" y="297" width="250" height="48" as="geometry" />
        </mxCell>
        <mxCell id="cdmeLEnnqN9o7mxTk7t2-8" value="&lt;font style=&quot;font-size: 30px;&quot;&gt;▼青森県&lt;/font&gt;&lt;span style=&quot;font-size: 30px;&quot;&gt;&lt;br&gt;&lt;/span&gt;" style="rounded=0;whiteSpace=wrap;html=1;align=left;" parent="cFaB45KztUIKXS-_cTrr-14" vertex="1">
          <mxGeometry x="642" y="298" width="250" height="48" as="geometry" />
        </mxCell>
        <mxCell id="cdmeLEnnqN9o7mxTk7t2-9" value="&lt;span style=&quot;font-size: 30px;&quot;&gt;都道府県&lt;/span&gt;" style="rounded=0;whiteSpace=wrap;html=1;align=right;dashed=1;dashPattern=8 8;verticalAlign=bottom;" parent="cFaB45KztUIKXS-_cTrr-14" vertex="1">
          <mxGeometry x="30" y="297" width="310" height="46" as="geometry" />
        </mxCell>
        <mxCell id="cdmeLEnnqN9o7mxTk7t2-10" value="&lt;span style=&quot;font-size: 30px;&quot;&gt;自治体コード(一部)&lt;/span&gt;" style="rounded=0;whiteSpace=wrap;html=1;align=right;dashed=1;dashPattern=8 8;verticalAlign=bottom;" parent="cFaB45KztUIKXS-_cTrr-14" vertex="1">
          <mxGeometry x="30" y="357" width="310" height="46" as="geometry" />
        </mxCell>
        <mxCell id="cdmeLEnnqN9o7mxTk7t2-11" value="&lt;font style=&quot;font-size: 30px;&quot;&gt;112&lt;/font&gt;&lt;span style=&quot;font-size: 30px;&quot;&gt;&lt;br&gt;&lt;/span&gt;" style="rounded=0;whiteSpace=wrap;html=1;align=left;" parent="cFaB45KztUIKXS-_cTrr-14" vertex="1">
          <mxGeometry x="360" y="356" width="650" height="48" as="geometry" />
        </mxCell>
        <mxCell id="cdmeLEnnqN9o7mxTk7t2-12" value="&lt;span style=&quot;font-size: 30px;&quot;&gt;議会&lt;/span&gt;" style="rounded=0;whiteSpace=wrap;html=1;align=right;dashed=1;dashPattern=8 8;verticalAlign=bottom;" parent="cFaB45KztUIKXS-_cTrr-14" vertex="1">
          <mxGeometry x="30" y="419" width="310" height="46" as="geometry" />
        </mxCell>
        <mxCell id="cdmeLEnnqN9o7mxTk7t2-13" value="&lt;span style=&quot;font-size: 30px;&quot;&gt;☑県議会&lt;/span&gt;" style="rounded=0;whiteSpace=wrap;html=1;align=left;dashed=1;dashPattern=8 8;verticalAlign=bottom;" parent="cFaB45KztUIKXS-_cTrr-14" vertex="1">
          <mxGeometry x="360" y="419" width="190" height="46" as="geometry" />
        </mxCell>
        <mxCell id="cdmeLEnnqN9o7mxTk7t2-14" value="&lt;span style=&quot;font-size: 30px;&quot;&gt;☑市議会&lt;/span&gt;" style="rounded=0;whiteSpace=wrap;html=1;align=left;dashed=1;dashPattern=8 8;verticalAlign=bottom;" parent="cFaB45KztUIKXS-_cTrr-14" vertex="1">
          <mxGeometry x="580" y="419" width="200" height="46" as="geometry" />
        </mxCell>
        <mxCell id="cdmeLEnnqN9o7mxTk7t2-15" value="&lt;span style=&quot;font-size: 30px;&quot;&gt;☑町村議会&lt;/span&gt;" style="rounded=0;whiteSpace=wrap;html=1;align=left;dashed=1;dashPattern=8 8;verticalAlign=bottom;" parent="cFaB45KztUIKXS-_cTrr-14" vertex="1">
          <mxGeometry x="810" y="419" width="220" height="46" as="geometry" />
        </mxCell>
        <mxCell id="cdmeLEnnqN9o7mxTk7t2-25" value="&lt;span style=&quot;font-size: 30px;&quot;&gt;検索&lt;/span&gt;" style="rounded=1;whiteSpace=wrap;html=1;" parent="cFaB45KztUIKXS-_cTrr-14" vertex="1">
          <mxGeometry x="1032" y="495" width="210" height="51" as="geometry" />
        </mxCell>
        <mxCell id="cdmeLEnnqN9o7mxTk7t2-26" value="&lt;span style=&quot;font-size: 30px;&quot;&gt;最初&lt;/span&gt;" style="rounded=1;whiteSpace=wrap;html=1;" parent="cFaB45KztUIKXS-_cTrr-14" vertex="1">
          <mxGeometry x="390" y="920" width="110" height="51" as="geometry" />
        </mxCell>
        <mxCell id="cdmeLEnnqN9o7mxTk7t2-27" value="&lt;span style=&quot;font-size: 30px;&quot;&gt;最後&lt;/span&gt;" style="rounded=1;whiteSpace=wrap;html=1;" parent="cFaB45KztUIKXS-_cTrr-14" vertex="1">
          <mxGeometry x="1420" y="920" width="110" height="51" as="geometry" />
        </mxCell>
        <mxCell id="cdmeLEnnqN9o7mxTk7t2-28" value="&lt;span style=&quot;font-size: 30px;&quot;&gt;1&lt;/span&gt;" style="rounded=1;whiteSpace=wrap;html=1;" parent="cFaB45KztUIKXS-_cTrr-14" vertex="1">
          <mxGeometry x="648" y="920" width="110" height="51" as="geometry" />
        </mxCell>
        <mxCell id="cdmeLEnnqN9o7mxTk7t2-29" value="&lt;span style=&quot;font-size: 30px;&quot;&gt;2&lt;/span&gt;" style="rounded=1;whiteSpace=wrap;html=1;" parent="cFaB45KztUIKXS-_cTrr-14" vertex="1">
          <mxGeometry x="776" y="920" width="110" height="51" as="geometry" />
        </mxCell>
        <mxCell id="cdmeLEnnqN9o7mxTk7t2-30" value="&lt;span style=&quot;font-size: 30px;&quot;&gt;3&lt;/span&gt;" style="rounded=1;whiteSpace=wrap;html=1;" parent="cFaB45KztUIKXS-_cTrr-14" vertex="1">
          <mxGeometry x="905" y="921" width="110" height="51" as="geometry" />
        </mxCell>
        <mxCell id="cdmeLEnnqN9o7mxTk7t2-31" value="&lt;span style=&quot;font-size: 30px;&quot;&gt;4&lt;/span&gt;" style="rounded=1;whiteSpace=wrap;html=1;" parent="cFaB45KztUIKXS-_cTrr-14" vertex="1">
          <mxGeometry x="1034" y="921" width="110" height="51" as="geometry" />
        </mxCell>
        <mxCell id="cdmeLEnnqN9o7mxTk7t2-32" value="&lt;span style=&quot;font-size: 30px;&quot;&gt;5&lt;/span&gt;" style="rounded=1;whiteSpace=wrap;html=1;" parent="cFaB45KztUIKXS-_cTrr-14" vertex="1">
          <mxGeometry x="1163" y="921" width="110" height="51" as="geometry" />
        </mxCell>
        <mxCell id="cdmeLEnnqN9o7mxTk7t2-35" value="&lt;span style=&quot;font-size: 30px;&quot;&gt;&amp;gt;&amp;gt;&lt;/span&gt;" style="rounded=1;whiteSpace=wrap;html=1;" parent="cFaB45KztUIKXS-_cTrr-14" vertex="1">
          <mxGeometry x="1291" y="921" width="110" height="51" as="geometry" />
        </mxCell>
        <mxCell id="cdmeLEnnqN9o7mxTk7t2-36" value="&lt;span style=&quot;font-size: 30px;&quot;&gt;&amp;lt;&amp;lt;&lt;/span&gt;" style="rounded=1;whiteSpace=wrap;html=1;" parent="cFaB45KztUIKXS-_cTrr-14" vertex="1">
          <mxGeometry x="519" y="921" width="110" height="51" as="geometry" />
        </mxCell>
        <mxCell id="cdmeLEnnqN9o7mxTk7t2-37" value="&lt;div style=&quot;&quot;&gt;&lt;font style=&quot;font-size: 30px;&quot;&gt;スクロール&lt;/font&gt;&lt;/div&gt;" style="rounded=0;whiteSpace=wrap;html=1;align=left;verticalAlign=top;fillColor=#FFFFCC;" parent="cFaB45KztUIKXS-_cTrr-14" vertex="1">
          <mxGeometry x="30" y="854" width="1500" height="48" as="geometry" />
        </mxCell>
        <mxCell id="cdmeLEnnqN9o7mxTk7t2-38" value="&lt;div style=&quot;&quot;&gt;&lt;br&gt;&lt;/div&gt;" style="rounded=0;whiteSpace=wrap;html=1;align=left;verticalAlign=top;fillColor=#FFFF66;" parent="cFaB45KztUIKXS-_cTrr-14" vertex="1">
          <mxGeometry x="230" y="863" width="290" height="29" as="geometry" />
        </mxCell>
        <mxCell id="cdmeLEnnqN9o7mxTk7t2-40" value="&lt;div style=&quot;&quot;&gt;&lt;font style=&quot;font-size: 30px;&quot;&gt;スクロール&lt;/font&gt;&lt;/div&gt;" style="rounded=0;whiteSpace=wrap;html=1;align=left;verticalAlign=top;fillColor=#FFFFCC;rotation=90;" parent="cFaB45KztUIKXS-_cTrr-14" vertex="1">
          <mxGeometry x="1095" y="728" width="204" height="49" as="geometry" />
        </mxCell>
        <mxCell id="aofkNSBhaa3phzOjtapv-0" value="&lt;span style=&quot;font-size: 30px;&quot;&gt;新規行追加&lt;/span&gt;" style="rounded=1;whiteSpace=wrap;html=1;" parent="cFaB45KztUIKXS-_cTrr-14" vertex="1">
          <mxGeometry x="31" y="998" width="229" height="36" as="geometry" />
        </mxCell>
        <mxCell id="aofkNSBhaa3phzOjtapv-6" value="&lt;span style=&quot;font-size: 30px;&quot;&gt;削除&lt;/span&gt;" style="rounded=1;whiteSpace=wrap;html=1;" parent="cFaB45KztUIKXS-_cTrr-14" vertex="1">
          <mxGeometry x="1033" y="692" width="110" height="36" as="geometry" />
        </mxCell>
        <mxCell id="aofkNSBhaa3phzOjtapv-7" value="&lt;span style=&quot;font-size: 30px;&quot;&gt;削除&lt;/span&gt;" style="rounded=1;whiteSpace=wrap;html=1;" parent="cFaB45KztUIKXS-_cTrr-14" vertex="1">
          <mxGeometry x="1031" y="733" width="110" height="36" as="geometry" />
        </mxCell>
        <mxCell id="aofkNSBhaa3phzOjtapv-8" value="&lt;span style=&quot;font-size: 30px;&quot;&gt;削除&lt;/span&gt;" style="rounded=1;whiteSpace=wrap;html=1;" parent="cFaB45KztUIKXS-_cTrr-14" vertex="1">
          <mxGeometry x="1031" y="772" width="110" height="36" as="geometry" />
        </mxCell>
        <mxCell id="aofkNSBhaa3phzOjtapv-9" value="&lt;span style=&quot;font-size: 30px;&quot;&gt;削除&lt;/span&gt;" style="rounded=1;whiteSpace=wrap;html=1;" parent="cFaB45KztUIKXS-_cTrr-14" vertex="1">
          <mxGeometry x="1030" y="812" width="110" height="36" as="geometry" />
        </mxCell>
        <mxCell id="xyCVE41yMdnYO5FHM98G-0" value="&lt;span style=&quot;font-size: 30px;&quot;&gt;政党&lt;/span&gt;" style="rounded=0;whiteSpace=wrap;html=1;align=right;dashed=1;dashPattern=8 8;verticalAlign=bottom;" parent="cFaB45KztUIKXS-_cTrr-14" vertex="1">
          <mxGeometry x="30" y="489" width="310" height="46" as="geometry" />
        </mxCell>
        <mxCell id="xyCVE41yMdnYO5FHM98G-1" value="&lt;font style=&quot;font-size: 30px;&quot;&gt;▼烏合の衆の党&lt;/font&gt;&lt;span style=&quot;font-size: 30px;&quot;&gt;&lt;br&gt;&lt;/span&gt;" style="rounded=0;whiteSpace=wrap;html=1;align=left;" parent="cFaB45KztUIKXS-_cTrr-14" vertex="1">
          <mxGeometry x="360" y="487" width="250" height="48" as="geometry" />
        </mxCell>
      </root>
    </mxGraphModel>
  </diagram>
</mxfile>
